<svg xmlns="http://www.w3.org/2000/svg" width="500" height="500" viewBox="160 55 40 80"><g fill-rule="evenodd" clip-rule="evenodd"><path d="M189.326 111.795c-1.242-1.484-4.074-2.244-8.562-2.209-4.455.033-9.254.793-14.363 2.312-5.076 1.486-9.014 3.314-11.74 5.455-2.729 2.143-3.488 3.938-2.244 5.457 1.242 1.52 4.074 2.279 8.562 2.209 4.488 0 9.254-.793 14.363-2.279 5.111-1.52 9.012-3.35 11.74-5.488 2.729-2.143 3.522-3.938 2.244-5.457z" fill="#a5caed"/><path d="M185.527 112.936c-1-1.209-3.244-1.797-6.801-1.762-3.557 0-7.355.621-11.395 1.83-4.041 1.209-7.148 2.625-9.324 4.316-2.174 1.727-2.795 3.141-1.795 4.35 1.002 1.209 3.246 1.797 6.803 1.762 3.557 0 7.355-.621 11.395-1.83 4.074-1.209 7.146-2.625 9.322-4.35 2.176-1.693 2.797-3.109 1.795-4.316z" fill="#a5caed"/><path d="M158.977 66.839a5.099 5.099 0 0 1 2.484-.622c.934-.035 1.727.207 2.383.622a2.995 2.995 0 0 1 1.381 1.864c.381 1.588.449 3.453.209 5.594-.623 5.145-1.072 9.116-1.244 11.913-.275 3.557-.621 10.289-1.07 20.199-.035 1.141-.381 2.072-.932 2.764-.588.656-1.209 1-1.969 1-.795.035-1.416-.207-1.934-.76-.553-.586-.863-1.449-.828-2.59 0-2.381.137-6.836.482-13.362-.172-.794-.76-1.105-1.727-.898-.482.104-.828.483-1 1.105-.346 6.872-.484 11.706-.416 14.432.035 1.797.623 3.213 1.797 4.213 1.07.898 2.383 1.312 3.867 1.244 1.484-.104 2.762-.621 3.832-1.588 1.174-1.105 1.795-2.557 1.865-4.316.207-6.182.656-12.051 1.381-17.714l1.83-15.296c.449-5.317-.553-8.978-3.039-10.911-1.553-1.174-3.35-1.761-5.422-1.727-2.174.035-4.004.726-5.488 2.072-1.797 1.623-2.832 3.867-3.143 6.768-1.277 12.741-1.797 27.658-1.588 44.785.068 3.107 1.104 5.455 3.211 7.078 1.863 1.381 4.143 2.037 6.836 1.795 2.693-.207 4.973-1.139 6.836-2.797 2.107-1.762 3.143-4.006 3.178-6.629l.346-13.295c.068-2.037 1.312-4.418 3.764-7.181 0-.622-.242-1.105-.691-1.45-.379-.346-.932-.483-1.553-.518-3.039 3.073-4.594 5.802-4.559 8.183l-.275 13.916c-.139 1.863-.934 3.383-2.314 4.453-1.242.967-2.729 1.486-4.523 1.52-1.727.035-3.211-.379-4.523-1.312-1.416-.932-2.174-2.348-2.312-4.107-.311-3.488-.207-9.945.346-19.406l1.553-22.651c.172-1.899.553-3.418 1.105-4.558.377-.762 1-1.383 1.864-1.832z" fill="#666575"/><path d="M157.594 66.977c1.209-1.243 2.693-1.796 4.523-1.658 1.865.173 3.246 1.001 4.178 2.486.484.759.795 1.692.865 2.9.033.864 0 2.21-.174 3.971l-1.277 12.81c-.449 5.214-.795 11.601-1.035 19.128-.035 1.209-.449 2.176-1.244 2.9-.691.656-1.553 1.037-2.59 1.105-.967.104-1.863-.068-2.555-.586-.795-.52-1.174-1.244-1.209-2.244-.033-4.49.07-9.014.311-13.605.381-.276.449-.588.242-.933-.242-.346-.586-.483-1.07-.483-.553 0-.898.276-1.035.76-.174.518.104.759.76.829-.277 6.837-.414 11.464-.346 13.95 0 1.207.518 2.141 1.484 2.762.863.586 1.969.793 3.246.689s2.348-.551 3.279-1.277c1.002-.828 1.555-1.863 1.658-3.176.518-8.666.898-14.606 1.174-17.713.381-3.937.967-8.494 1.727-13.743.656-4.281.275-7.527-1.244-9.771-1.414-2.072-3.383-3.073-5.834-3.039-2.521.034-4.523 1.14-6.008 3.314-.727 1.036-1.244 3.039-1.658 5.905-1.312 10.013-1.865 24.619-1.727 43.783 0 2.416.932 4.246 2.797 5.523 1.658 1.174 3.729 1.727 6.18 1.623 2.418-.139 4.455-.828 6.182-2.176 1.934-1.449 2.9-3.35 2.969-5.697l.346-13.846c0-2.348 1.381-4.764 4.074-7.216.139-.207.104-.449-.137-.725-.346-.311-.553-.484-.691-.449-2.936 3.211-4.42 6.007-4.42 8.287 0 8.84-.104 13.57-.311 14.227-.588 2.037-1.727 3.59-3.418 4.627-1.484.896-3.178 1.346-5.041 1.277-1.83-.068-3.418-.588-4.766-1.52-1.381-1.035-2.141-2.348-2.244-3.936-.275-3.902-.207-10.463.207-19.682.414-8.875 1.002-16.816 1.691-23.756.311-2.552 1.002-4.451 2.141-5.625z" fill="#737da7"/><path d="M169.609 114.869c-.137.033-.24.104-.309.311l-.105.656c-.551 2.037-1.691 3.59-3.383 4.66-1.484.934-3.246 1.348-5.18 1.277-1.865-.068-3.486-.621-4.834-1.553-1.451-1.037-2.279-2.348-2.416-3.902 0-.414-.104-.553-.381-.553-.346.035-.449.242-.311.656.346 2.141 1.381 3.799 3.107 4.938 1.588 1.002 3.418 1.484 5.525 1.348 2.105-.104 3.936-.727 5.523-1.934 1.693-1.277 2.729-3.004 3.074-5.145.106-.519.003-.794-.31-.759zM157.318 94.289l-.518.138-.277 5.559c-.172 3.557-.275 6.146-.24 7.77.033 1.209.482 2.141 1.381 2.797.828.621 1.83.863 3.004.793a5.525 5.525 0 0 0 3.107-1.174c.967-.828 1.52-1.863 1.658-3.211.033-.379 0-.553-.174-.553-.207 0-.242.207-.242.553-.172 1.244-.725 2.211-1.588 2.969-.795.656-1.727 1.037-2.762 1.07-1.037.035-1.9-.24-2.59-.828-.76-.689-1.141-1.621-1.141-2.865l.382-13.018zM158.631 65.285c1.518-1.036 3.072-1.45 4.764-1.208 1.762.276 3.039 1.174 3.799 2.728.656 1.208.932 2.59.932 4.178-.033.311.035.483.277.518.172.035.275-.172.275-.622 0-1.83-.379-3.453-1.242-4.903-.898-1.484-2.211-2.382-4.041-2.658-1.795-.311-3.557.104-5.213 1.174-.242.242-.311.483-.174.69.174.241.381.276.623.103z" fill="#cccde7"/><path d="M146.891 83.792c-.242 1.692.172 3.177 1.139 4.523 1.002 1.346 2.348 2.106 4.006 2.348 1.691.242 3.178-.138 4.523-1.14 1.346-1.001 2.105-2.313 2.348-4.005.242-1.658-.139-3.143-1.139-4.489-1.002-1.312-2.348-2.141-4.006-2.348-1.658-.276-3.143.138-4.488 1.104-1.348 1.038-2.141 2.35-2.383 4.007z" fill="#666575"/><path d="M149.135 80.823c-1.312.726-2.037 1.727-2.244 2.97-.172 1.312.242 2.555 1.277 3.764 1.07 1.277 2.383 2.037 4.006 2.279s3.107-.104 4.488-1.036c1.312-.898 2.072-1.968 2.244-3.28.172-1.243-.242-2.417-1.312-3.453-1.035-1.036-2.381-1.727-4.039-1.934-1.659-.242-3.143-.001-4.42.69z" fill="#d0d1d3"/><path d="M153.383 81.168c-1.555-.242-2.936-.069-4.145.448-1.209.519-1.898 1.243-2.037 2.245-.139 1.036.277 2.003 1.277 3.004a6.4 6.4 0 0 0 3.834 1.934c1.518.207 2.9-.035 4.211-.76 1.209-.69 1.898-1.52 2.072-2.555.139-1.001-.311-1.899-1.346-2.728-1.001-.828-2.278-1.381-3.866-1.588z" fill="#fff"/><path d="M153.141 82.86c-.553-.034-1.105.069-1.555.415s-.725.829-.828 1.416c-.068.586.068 1.105.414 1.553.346.483.828.726 1.416.829.553.069 1.07-.069 1.555-.415.482-.345.725-.829.828-1.381.068-.552-.07-1.07-.414-1.588-.346-.449-.83-.726-1.416-.829z"/><path d="M167.746 77.992c-1.691-.242-3.176.173-4.488 1.139-1.312 1.001-2.107 2.348-2.35 4.04-.24 1.623.139 3.142 1.141 4.489s2.312 2.106 4.006 2.348c1.656.242 3.141-.138 4.488-1.14 1.346-1.001 2.141-2.348 2.348-3.971.242-1.692-.104-3.177-1.139-4.558-1.002-1.312-2.348-2.106-4.006-2.347z" fill="#666575"/><path d="M167.539 79.442c-1.658-.242-3.143.034-4.455.76-1.277.725-2.002 1.691-2.176 2.969-.205 1.278.209 2.555 1.244 3.764 1.035 1.277 2.418 2.002 4.006 2.209 1.623.242 3.107-.104 4.488-1.035 1.312-.864 2.072-1.934 2.244-3.211.207-1.278-.242-2.417-1.277-3.522-1.035-1.037-2.383-1.658-4.074-1.934z" fill="#d0d1d3"/><path d="M161.289 83.206c-.139 1.001.275 2.003 1.242 2.969 1.037 1.036 2.279 1.692 3.764 1.899 1.52.208 2.9-.034 4.18-.759 1.174-.656 1.863-1.485 2.002-2.521.139-.932-.277-1.83-1.277-2.658-1.002-.829-2.279-1.347-3.799-1.554-1.588-.242-2.936-.103-4.109.449-1.208.482-1.864 1.242-2.003 2.175z" fill="#fff"/><path d="M168.955 84.621c.068-.587-.035-1.105-.381-1.588-.344-.449-.828-.725-1.414-.829-.588-.069-1.105.069-1.555.415-.484.345-.795.828-.863 1.416a2.101 2.101 0 0 0 .414 1.554c.346.483.828.759 1.381.863a2.178 2.178 0 0 0 1.588-.415c.484-.346.76-.829.83-1.416zM151.275 70.982c-2.312.829-4.109 2.866-5.42 6.181 2.727-2.762 4.938-4.005 6.732-3.729l-1.312-2.452zM168.125 72.018l-.932 2.659c1.277.035 2.729.483 4.385 1.312 1.623.829 3.143 1.934 4.627 3.28-2.209-3.521-4.902-5.939-8.08-7.251z"/></g></svg>
